<svg xmlns="http://www.w3.org/2000/svg" viewBox="-4 -4 88 88"><rect x="0.5" y="0.5" width="9" height="9" rx="1" fill="#b8741a"/><rect x="70.5" y="0.5" width="9" height="9" rx="1" fill="#d9a24d"/><rect x="0.5" y="10.5" width="9" height="9" rx="1" fill="#b8741a"/><rect x="70.5" y="10.5" width="9" height="9" rx="1" fill="#d9a24d"/><rect x="10.5" y="20.5" width="9" height="9" rx="1" fill="#b8741a"/><rect x="20.5" y="20.5" width="9" height="9" rx="1" fill="#b8741a"/><rect x="30.5" y="20.5" width="9" height="9" rx="1" fill="#b8741a"/><rect x="40.5" y="20.5" width="9" height="9" rx="1" fill="#b8741a"/><rect x="50.5" y="20.5" width="9" height="9" rx="1" fill="#b8741a"/><rect x="60.5" y="20.5" width="9" height="9" rx="1" fill="#d9a24d"/><rect x="10.5" y="30.5" width="9" height="9" rx="1" fill="#b8741a"/><rect x="20.5" y="30.5" width="9" height="9" rx="1" fill="#b8741a"/><rect x="30.5" y="30.5" width="9" height="9" rx="1" fill="#b8741a"/><rect x="40.5" y="30.5" width="9" height="9" rx="1" fill="#b8741a"/><rect x="50.5" y="30.5" width="9" height="9" rx="1" fill="#d9a24d"/><rect x="60.5" y="30.5" width="9" height="9" rx="1" fill="#d9a24d"/><rect x="10.5" y="40.5" width="9" height="9" rx="1" fill="#b8741a"/><rect x="20.5" y="40.5" width="9" height="9" rx="1" fill="#b8741a"/><rect x="30.5" y="40.5" width="9" height="9" rx="1" fill="#b8741a"/><rect x="40.5" y="40.5" width="9" height="9" rx="1" fill="#d9a24d"/><rect x="50.5" y="40.5" width="9" height="9" rx="1" fill="#d9a24d"/><rect x="60.5" y="40.5" width="9" height="9" rx="1" fill="#efd3a0"/><rect x="20.5" y="50.5" width="9" height="9" rx="1" fill="#b8741a"/><rect x="30.5" y="50.5" width="9" height="9" rx="1" fill="#b8741a"/><rect x="40.5" y="50.5" width="9" height="9" rx="1" fill="#d9a24d"/><rect x="50.5" y="50.5" width="9" height="9" rx="1" fill="#efd3a0"/><rect x="20.5" y="60.5" width="9" height="9" rx="1" fill="#b8741a"/><rect x="50.5" y="60.5" width="9" height="9" rx="1" fill="#efd3a0"/><rect x="20.5" y="70.5" width="9" height="9" rx="1" fill="#d9a24d"/><rect x="30.5" y="70.5" width="9" height="9" rx="1" fill="#d9a24d"/><rect x="40.5" y="70.5" width="9" height="9" rx="1" fill="#efd3a0"/><rect x="50.5" y="70.5" width="9" height="9" rx="1" fill="#efd3a0"/></svg>
